<mxfile host="app.diagrams.net" modified="2022-09-29T10:31:50.096Z" agent="5.0 (Windows NT 10.0; Win64; x64) AppleWebKit/537.36 (KHTML, like Gecko) Chrome/105.0.0.0 Safari/537.36" etag="FfCDg7R11-OpMywQIYu1" version="20.3.7" type="github">
  <diagram id="P0zaWtpW_9LTJKKf5pEs" name="Trang-1">
    <mxGraphModel dx="2460" dy="1013" grid="1" gridSize="10" guides="1" tooltips="1" connect="1" arrows="1" fold="1" page="1" pageScale="1" pageWidth="1169" pageHeight="827" background="none" math="0" shadow="0">
      <root>
        <mxCell id="0" />
        <mxCell id="1" parent="0" />
        <mxCell id="5pTlOpsHHp5RIkYjszge-6" value="" style="shape=process;whiteSpace=wrap;html=1;backgroundOutline=1;size=0.5;glass=0;rounded=0;" parent="1" vertex="1">
          <mxGeometry x="198" y="170" width="820" height="550" as="geometry" />
        </mxCell>
        <mxCell id="EvWHr4FJrmh7OVF7d29I-3" style="edgeStyle=orthogonalEdgeStyle;rounded=0;orthogonalLoop=1;jettySize=auto;html=1;exitX=0.5;exitY=1;exitDx=0;exitDy=0;entryX=0;entryY=0.5;entryDx=0;entryDy=0;" parent="1" source="24FCvN0owt_uZhaEgxBJ-12" target="24FCvN0owt_uZhaEgxBJ-9" edge="1">
          <mxGeometry relative="1" as="geometry">
            <mxPoint x="285" y="225" as="sourcePoint" />
            <mxPoint x="305" y="340" as="targetPoint" />
            <Array as="points">
              <mxPoint x="258" y="263" />
            </Array>
          </mxGeometry>
        </mxCell>
        <mxCell id="5pTlOpsHHp5RIkYjszge-7" value="&lt;b&gt;User&lt;/b&gt;" style="text;html=1;strokeColor=none;fillColor=none;align=center;verticalAlign=middle;whiteSpace=wrap;rounded=0;rotation=-90;horizontal=1;fontSize=18;" parent="1" vertex="1">
          <mxGeometry x="195" y="325" width="60" height="30" as="geometry" />
        </mxCell>
        <mxCell id="EvWHr4FJrmh7OVF7d29I-7" value="" style="edgeStyle=orthogonalEdgeStyle;rounded=0;orthogonalLoop=1;jettySize=auto;html=1;exitX=0.5;exitY=1;exitDx=0;exitDy=0;entryX=0.5;entryY=0;entryDx=0;entryDy=0;" parent="1" source="24FCvN0owt_uZhaEgxBJ-9" target="24FCvN0owt_uZhaEgxBJ-10" edge="1">
          <mxGeometry relative="1" as="geometry">
            <mxPoint x="305" y="380" as="sourcePoint" />
            <mxPoint x="345" y="450" as="targetPoint" />
            <Array as="points">
              <mxPoint x="407" y="310" />
              <mxPoint x="307" y="310" />
            </Array>
          </mxGeometry>
        </mxCell>
        <mxCell id="EvWHr4FJrmh7OVF7d29I-13" value="" style="edgeStyle=orthogonalEdgeStyle;rounded=0;orthogonalLoop=1;jettySize=auto;html=1;exitX=1;exitY=0.6;exitDx=0;exitDy=0;exitPerimeter=0;entryX=0;entryY=0.5;entryDx=0;entryDy=0;" parent="1" source="24FCvN0owt_uZhaEgxBJ-10" target="24FCvN0owt_uZhaEgxBJ-11" edge="1">
          <mxGeometry relative="1" as="geometry">
            <mxPoint x="445" y="450" as="sourcePoint" />
            <mxPoint x="475" y="325" as="targetPoint" />
          </mxGeometry>
        </mxCell>
        <mxCell id="EvWHr4FJrmh7OVF7d29I-15" value="" style="edgeStyle=orthogonalEdgeStyle;rounded=0;orthogonalLoop=1;jettySize=auto;html=1;entryX=0;entryY=0.5;entryDx=0;entryDy=0;exitX=1;exitY=0.5;exitDx=0;exitDy=0;" parent="1" source="24FCvN0owt_uZhaEgxBJ-11" target="EvWHr4FJrmh7OVF7d29I-14" edge="1">
          <mxGeometry relative="1" as="geometry">
            <mxPoint x="535" y="295" as="sourcePoint" />
          </mxGeometry>
        </mxCell>
        <mxCell id="24FCvN0owt_uZhaEgxBJ-65" style="edgeStyle=orthogonalEdgeStyle;rounded=0;orthogonalLoop=1;jettySize=auto;html=1;exitX=0.5;exitY=1;exitDx=0;exitDy=0;fontSize=18;fontColor=#000000;entryX=0.5;entryY=0;entryDx=0;entryDy=0;" edge="1" parent="1" source="EvWHr4FJrmh7OVF7d29I-14" target="EvWHr4FJrmh7OVF7d29I-18">
          <mxGeometry relative="1" as="geometry">
            <Array as="points">
              <mxPoint x="591" y="440" />
              <mxPoint x="353" y="440" />
            </Array>
          </mxGeometry>
        </mxCell>
        <mxCell id="24FCvN0owt_uZhaEgxBJ-74" style="edgeStyle=orthogonalEdgeStyle;rounded=0;orthogonalLoop=1;jettySize=auto;html=1;entryX=0;entryY=0.5;entryDx=0;entryDy=0;fontSize=18;fontColor=#000000;" edge="1" parent="1" source="EvWHr4FJrmh7OVF7d29I-14" target="24FCvN0owt_uZhaEgxBJ-14">
          <mxGeometry relative="1" as="geometry">
            <Array as="points">
              <mxPoint x="587" y="302" />
            </Array>
          </mxGeometry>
        </mxCell>
        <mxCell id="EvWHr4FJrmh7OVF7d29I-14" value="&lt;b&gt;X&lt;/b&gt;" style="rhombus;whiteSpace=wrap;html=1;rounded=0;" parent="1" vertex="1">
          <mxGeometry x="571.5" y="361.75" width="38.5" height="36.25" as="geometry" />
        </mxCell>
        <mxCell id="EvWHr4FJrmh7OVF7d29I-22" value="" style="edgeStyle=orthogonalEdgeStyle;rounded=0;orthogonalLoop=1;jettySize=auto;html=1;exitX=0.5;exitY=1;exitDx=0;exitDy=0;" parent="1" source="24FCvN0owt_uZhaEgxBJ-14" target="EvWHr4FJrmh7OVF7d29I-21" edge="1">
          <mxGeometry relative="1" as="geometry">
            <Array as="points">
              <mxPoint x="857" y="488" />
            </Array>
            <mxPoint x="880" y="240" as="sourcePoint" />
          </mxGeometry>
        </mxCell>
        <mxCell id="24FCvN0owt_uZhaEgxBJ-2" value="" style="edgeStyle=orthogonalEdgeStyle;rounded=0;orthogonalLoop=1;jettySize=auto;html=1;exitX=0.5;exitY=1;exitDx=0;exitDy=0;entryX=0.5;entryY=1;entryDx=0;entryDy=0;" edge="1" parent="1" source="EvWHr4FJrmh7OVF7d29I-18" target="24FCvN0owt_uZhaEgxBJ-1">
          <mxGeometry relative="1" as="geometry">
            <Array as="points">
              <mxPoint x="353" y="690" />
              <mxPoint x="830" y="690" />
            </Array>
          </mxGeometry>
        </mxCell>
        <mxCell id="EvWHr4FJrmh7OVF7d29I-18" value="Chọn tìm kiếm hoặc ấn Enter" style="whiteSpace=wrap;html=1;rounded=1;" parent="1" vertex="1">
          <mxGeometry x="300" y="600" width="105" height="45" as="geometry" />
        </mxCell>
        <mxCell id="EvWHr4FJrmh7OVF7d29I-23" style="edgeStyle=orthogonalEdgeStyle;rounded=0;orthogonalLoop=1;jettySize=auto;html=1;entryX=1;entryY=0.5;entryDx=0;entryDy=0;" parent="1" source="EvWHr4FJrmh7OVF7d29I-21" target="EvWHr4FJrmh7OVF7d29I-18" edge="1">
          <mxGeometry relative="1" as="geometry" />
        </mxCell>
        <mxCell id="EvWHr4FJrmh7OVF7d29I-21" value="Tích chọn các ô thông tin nâng cao" style="whiteSpace=wrap;html=1;rounded=1;" parent="1" vertex="1">
          <mxGeometry x="456.5" y="470" width="110" height="55" as="geometry" />
        </mxCell>
        <mxCell id="EvWHr4FJrmh7OVF7d29I-24" value="&lt;b style=&quot;&quot;&gt;Tìm kiếm nâng cao&lt;/b&gt;" style="text;html=1;strokeColor=none;fillColor=none;align=center;verticalAlign=middle;whiteSpace=wrap;rounded=0;" parent="1" vertex="1">
          <mxGeometry x="637.5" y="275" width="130.5" height="20" as="geometry" />
        </mxCell>
        <mxCell id="EvWHr4FJrmh7OVF7d29I-26" value="&lt;b style=&quot;&quot;&gt;Tìm kiếm&lt;/b&gt;" style="text;html=1;strokeColor=none;fillColor=none;align=center;verticalAlign=middle;whiteSpace=wrap;rounded=0;" parent="1" vertex="1">
          <mxGeometry x="525" y="420" width="60" height="22" as="geometry" />
        </mxCell>
        <mxCell id="24FCvN0owt_uZhaEgxBJ-16" value="" style="edgeStyle=orthogonalEdgeStyle;rounded=0;orthogonalLoop=1;jettySize=auto;html=1;fontColor=#000000;" edge="1" parent="1" source="24FCvN0owt_uZhaEgxBJ-1" target="24FCvN0owt_uZhaEgxBJ-17">
          <mxGeometry relative="1" as="geometry">
            <mxPoint x="915" y="470" as="targetPoint" />
          </mxGeometry>
        </mxCell>
        <mxCell id="24FCvN0owt_uZhaEgxBJ-1" value="Hệ thống hiển thị danh sách tìm kiếm" style="whiteSpace=wrap;html=1;rounded=1;" vertex="1" parent="1">
          <mxGeometry x="770" y="570" width="120" height="60" as="geometry" />
        </mxCell>
        <mxCell id="24FCvN0owt_uZhaEgxBJ-9" value="Truy cập vào trang chủ" style="rounded=1;whiteSpace=wrap;html=1;" vertex="1" parent="1">
          <mxGeometry x="356.5" y="240" width="100" height="45" as="geometry" />
        </mxCell>
        <mxCell id="24FCvN0owt_uZhaEgxBJ-10" value="Chọn biểu tượng tìm kiếm" style="rounded=1;whiteSpace=wrap;html=1;" vertex="1" parent="1">
          <mxGeometry x="257" y="350" width="100" height="50" as="geometry" />
        </mxCell>
        <mxCell id="24FCvN0owt_uZhaEgxBJ-11" value="Nhập từ khóa tìm kiếm" style="rounded=1;whiteSpace=wrap;html=1;" vertex="1" parent="1">
          <mxGeometry x="410" y="350" width="90" height="60" as="geometry" />
        </mxCell>
        <mxCell id="24FCvN0owt_uZhaEgxBJ-12" value="" style="ellipse;whiteSpace=wrap;html=1;aspect=fixed;fontColor=#ffffff;fillColor=#a20025;strokeColor=#6F0000;" vertex="1" parent="1">
          <mxGeometry x="242.62" y="222" width="30" height="30" as="geometry" />
        </mxCell>
        <mxCell id="24FCvN0owt_uZhaEgxBJ-14" value="Hiển thị bảng tìm kiếm nâng cao" style="rounded=1;whiteSpace=wrap;html=1;" vertex="1" parent="1">
          <mxGeometry x="796.5" y="272" width="120" height="60" as="geometry" />
        </mxCell>
        <mxCell id="24FCvN0owt_uZhaEgxBJ-17" value="" style="ellipse;whiteSpace=wrap;html=1;aspect=fixed;rounded=1;fontColor=#ffffff;fillColor=#a20025;strokeColor=#FF0000;strokeWidth=4;shadow=0;sketch=0;" vertex="1" parent="1">
          <mxGeometry x="940" y="650" width="30" height="30" as="geometry" />
        </mxCell>
        <mxCell id="24FCvN0owt_uZhaEgxBJ-18" value="&lt;h1&gt;AD-Search&lt;/h1&gt;" style="text;html=1;spacing=5;spacingTop=-20;whiteSpace=wrap;overflow=hidden;rounded=0;shadow=0;glass=0;sketch=0;strokeWidth=2;fillColor=none;" vertex="1" parent="1">
          <mxGeometry x="550" y="130" width="136" height="40" as="geometry" />
        </mxCell>
        <mxCell id="24FCvN0owt_uZhaEgxBJ-19" value="" style="shape=process;whiteSpace=wrap;html=1;backgroundOutline=1;size=0.04938271604938271;glass=0;rounded=0;" vertex="1" parent="1">
          <mxGeometry x="198" y="730" width="820" height="340" as="geometry" />
        </mxCell>
        <mxCell id="24FCvN0owt_uZhaEgxBJ-20" value="&lt;b&gt;User&lt;/b&gt;" style="text;html=1;strokeColor=none;fillColor=none;align=center;verticalAlign=middle;whiteSpace=wrap;rounded=0;rotation=-90;horizontal=1;fontSize=18;" vertex="1" parent="1">
          <mxGeometry x="182.62" y="885" width="60" height="30" as="geometry" />
        </mxCell>
        <mxCell id="24FCvN0owt_uZhaEgxBJ-23" style="edgeStyle=orthogonalEdgeStyle;rounded=0;orthogonalLoop=1;jettySize=auto;html=1;entryX=0.5;entryY=0;entryDx=0;entryDy=0;fontSize=18;fontColor=#000000;" edge="1" parent="1" source="24FCvN0owt_uZhaEgxBJ-21" target="24FCvN0owt_uZhaEgxBJ-22">
          <mxGeometry relative="1" as="geometry" />
        </mxCell>
        <mxCell id="24FCvN0owt_uZhaEgxBJ-21" value="" style="ellipse;whiteSpace=wrap;html=1;aspect=fixed;fontColor=#ffffff;fillColor=#a20025;strokeColor=#6F0000;" vertex="1" parent="1">
          <mxGeometry x="306.5" y="810" width="30" height="30" as="geometry" />
        </mxCell>
        <mxCell id="24FCvN0owt_uZhaEgxBJ-25" value="" style="edgeStyle=orthogonalEdgeStyle;rounded=0;orthogonalLoop=1;jettySize=auto;html=1;fontSize=18;fontColor=#000000;" edge="1" parent="1" source="24FCvN0owt_uZhaEgxBJ-22" target="24FCvN0owt_uZhaEgxBJ-24">
          <mxGeometry relative="1" as="geometry" />
        </mxCell>
        <mxCell id="24FCvN0owt_uZhaEgxBJ-22" value="Truy cập vào trang chủ" style="rounded=1;whiteSpace=wrap;html=1;" vertex="1" parent="1">
          <mxGeometry x="272.62" y="903.75" width="97.75" height="67.5" as="geometry" />
        </mxCell>
        <mxCell id="24FCvN0owt_uZhaEgxBJ-27" value="" style="edgeStyle=orthogonalEdgeStyle;rounded=0;orthogonalLoop=1;jettySize=auto;html=1;fontSize=18;fontColor=#000000;" edge="1" parent="1" source="24FCvN0owt_uZhaEgxBJ-24" target="24FCvN0owt_uZhaEgxBJ-26">
          <mxGeometry relative="1" as="geometry" />
        </mxCell>
        <mxCell id="24FCvN0owt_uZhaEgxBJ-24" value="Chọn bài hát muốn xem thông tin chi tiết" style="whiteSpace=wrap;html=1;rounded=1;" vertex="1" parent="1">
          <mxGeometry x="451.5" y="907.5" width="120" height="60" as="geometry" />
        </mxCell>
        <mxCell id="24FCvN0owt_uZhaEgxBJ-29" value="" style="edgeStyle=orthogonalEdgeStyle;rounded=0;orthogonalLoop=1;jettySize=auto;html=1;fontSize=18;fontColor=#000000;" edge="1" parent="1" source="24FCvN0owt_uZhaEgxBJ-26" target="24FCvN0owt_uZhaEgxBJ-28">
          <mxGeometry relative="1" as="geometry" />
        </mxCell>
        <mxCell id="24FCvN0owt_uZhaEgxBJ-26" value="Chọn nút tùy chọn&amp;nbsp;" style="whiteSpace=wrap;html=1;rounded=1;" vertex="1" parent="1">
          <mxGeometry x="648" y="907.5" width="120" height="60" as="geometry" />
        </mxCell>
        <mxCell id="24FCvN0owt_uZhaEgxBJ-31" style="edgeStyle=orthogonalEdgeStyle;rounded=0;orthogonalLoop=1;jettySize=auto;html=1;entryX=0.5;entryY=0;entryDx=0;entryDy=0;fontSize=18;fontColor=#000000;" edge="1" parent="1" source="24FCvN0owt_uZhaEgxBJ-28" target="24FCvN0owt_uZhaEgxBJ-30">
          <mxGeometry relative="1" as="geometry" />
        </mxCell>
        <mxCell id="24FCvN0owt_uZhaEgxBJ-28" value="Chọn xem thêm thông tin bài hát" style="whiteSpace=wrap;html=1;rounded=1;" vertex="1" parent="1">
          <mxGeometry x="841.5" y="907.5" width="120" height="60" as="geometry" />
        </mxCell>
        <mxCell id="24FCvN0owt_uZhaEgxBJ-30" value="" style="ellipse;whiteSpace=wrap;html=1;aspect=fixed;rounded=1;fontColor=#ffffff;fillColor=#a20025;strokeColor=#FF0000;strokeWidth=4;shadow=0;sketch=0;" vertex="1" parent="1">
          <mxGeometry x="886.5" y="1020" width="30" height="30" as="geometry" />
        </mxCell>
        <mxCell id="24FCvN0owt_uZhaEgxBJ-79" value="&lt;h1&gt;System&lt;/h1&gt;" style="text;html=1;spacing=5;spacingTop=-20;whiteSpace=wrap;overflow=hidden;rounded=0;shadow=0;glass=0;sketch=0;strokeWidth=2;fillColor=none;align=center;" vertex="1" parent="1">
          <mxGeometry x="770" y="170" width="136" height="40" as="geometry" />
        </mxCell>
        <mxCell id="24FCvN0owt_uZhaEgxBJ-80" value="&lt;h1&gt;User&lt;/h1&gt;&lt;div&gt;&lt;br&gt;&lt;/div&gt;" style="text;html=1;spacing=5;spacingTop=-20;whiteSpace=wrap;overflow=hidden;rounded=0;shadow=0;glass=0;sketch=0;strokeWidth=2;fillColor=none;align=center;" vertex="1" parent="1">
          <mxGeometry x="336.5" y="170" width="136" height="40" as="geometry" />
        </mxCell>
      </root>
    </mxGraphModel>
  </diagram>
</mxfile>
